<svg width="26" height="27" fill="none" xmlns="http://www.w3.org/2000/svg"><g clip-path="url(#clip0)" fill="#fff"><path d="M17.757.889H8.132A8.022 8.022 0 00.11 8.909v9.626a8.021 8.021 0 008.02 8.02h9.626a8.02 8.02 0 008.02-8.02V8.91a8.02 8.02 0 00-8.02-8.021zm5.614 17.646a5.62 5.62 0 01-5.614 5.614H8.132a5.62 5.62 0 01-5.615-5.614V8.91a5.62 5.62 0 015.615-5.615h9.625A5.62 5.62 0 0123.37 8.91v9.625z"/><path d="M12.944 7.306a6.417 6.417 0 100 12.834 6.417 6.417 0 000-12.834zm0 10.427c-2.21 0-4.01-1.8-4.01-4.01 0-2.213 1.8-4.011 4.01-4.011s4.01 1.798 4.01 4.01c0 2.21-1.8 4.01-4.01 4.01zM19.842 7.68a.855.855 0 100-1.71.855.855 0 000 1.71z"/></g><defs><clipPath id="clip0"><path fill="#fff" transform="translate(.11 .889)" d="M0 0h25.667v25.667H0z"/></clipPath></defs></svg>