<svg width="31" height="31" fill="none" xmlns="http://www.w3.org/2000/svg"><g clip-path="url(#clip0)"><path d="M30.556 6.248a13.06 13.06 0 01-3.61.99 6.23 6.23 0 002.756-3.463 12.519 12.519 0 01-3.972 1.516 6.262 6.262 0 00-10.836 4.284c0 .496.042.974.145 1.428-5.208-.254-9.816-2.75-12.912-6.552a6.307 6.307 0 00-.857 3.166 6.273 6.273 0 002.782 5.206 6.187 6.187 0 01-2.83-.771v.069c0 3.044 2.172 5.572 5.019 6.155a6.271 6.271 0 01-1.642.206 5.54 5.54 0 01-1.186-.107c.811 2.48 3.114 4.304 5.853 4.364a12.587 12.587 0 01-7.767 2.671c-.514 0-1.006-.023-1.499-.086a17.635 17.635 0 009.61 2.811c11.527 0 17.829-9.548 17.829-17.825 0-.277-.01-.544-.023-.81a12.498 12.498 0 003.14-3.252z" fill="#fff"/></g><defs><clipPath id="clip0"><path fill="#fff" transform="translate(0 .445)" d="M0 0h30.556v30.556H0z"/></clipPath></defs></svg>