<svg width="34" height="33" fill="none" xmlns="http://www.w3.org/2000/svg"><g clip-path="url(#clip0)"><path d="M32.763 8.7c-.404-1.756-1.84-3.05-3.568-3.244C25.103 5 20.961 4.997 16.838 5c-4.123-.003-8.266 0-12.358.456C2.753 5.65 1.318 6.944.914 8.7.34 11.2.333 13.927.333 16.5c0 2.573 0 5.301.575 7.8.403 1.755 1.838 3.05 3.566 3.243 4.092.457 8.234.46 12.358.457 4.124.003 8.265 0 12.357-.457 1.727-.193 3.163-1.488 3.567-3.243.575-2.5.577-5.227.577-7.8 0-2.573.005-5.301-.57-7.8zM12.574 21.621V10.709l10.492 5.473-10.492 5.44z" fill="#fff"/></g><defs><clipPath id="clip0"><path fill="#fff" transform="translate(.333)" d="M0 0h33v33H0z"/></clipPath></defs></svg>