<svg width="12" height="12" viewBox="0 0 12 12" fill="none" xmlns="http://www.w3.org/2000/svg">
<g clip-path="url(#clip0)">
<path d="M11.0021 4.32154L7.95832 3.88666L6.59791 1.1835C6.35416 0.701667 5.64791 0.695542 5.40207 1.1835L4.04166 3.88666L0.997906 4.32154C0.452073 4.39912 0.233323 5.05858 0.629156 5.43628L2.83124 7.5392L2.31041 10.5098C2.21666 11.0468 2.79374 11.449 3.27707 11.1979L5.99999 9.79524L8.72291 11.1979C9.20624 11.4469 9.78332 11.0468 9.68957 10.5098L9.16874 7.5392L11.3708 5.43628C11.7667 5.05858 11.5479 4.39912 11.0021 4.32154V4.32154ZM8.09582 7.1962L8.58957 10.0219L5.99999 8.68865L3.41041 10.0219L3.90416 7.1962L1.80832 5.19537L4.70416 4.78295L5.99999 2.21046L7.29582 4.78295L10.1917 5.19537L8.09582 7.1962V7.1962Z" fill="white"/>
</g>
<defs>
<clipPath id="clip0">
<rect width="12" height="10.4533" fill="white" transform="translate(0 0.820068)"/>
</clipPath>
</defs>
</svg>
